{"title":"Fritz Freisler - Der Koenig der Mittelstuermer (1927)","uid":5981916,"size":1399172458,"categoryP":"video","categoryS":"movies","magnet":"?xt=urn:btih:33845ec872c93ce0e3ddc0aa48dbc9a6db868ed1&amp;dn=Fritz+Freisler+-+Der+Koenig+der+Mittelstuermer+%281927%29&amp;tr=udp%3A%2F%2Ftracker.openbittorrent.com%3A80&amp;tr=udp%3A%2F%2Fopen.demonii.com%3A1337&amp;tr=udp%3A%2F%2Ftracker.coppersurfer.tk%3A6969&amp;tr=udp%3A%2F%2Fexodus.desync.com%3A6969","seeders":0,"leechers":1,"uploader":"mfccorrea","files":3,"time":1290617754,"description":"Der KÃƒÂ¶nig der MittelstÃƒÂ¼rmer refers with the name of its hero to the German soccer legend of the twenties: Tull Harder, star of the Hamburger Sport Verein (HSV). But the story itself is completely fictional: The son of a trade company's director falls in love with the daughter of a big American oil magnate. But she supects him to be only interested in her money. So she buys his father's company to take revenge on him. The son's true love is soccer, and from the very first moment soccer fever invades the film. It starts with pictures of a soccer game and even an apple or crumpled up paper must serve as substitute for a ball. Whereas Die elf Teufel promotes soccer as &quot;the sport of the century&quot;, KÃƒÂ¶nig der MittelstÃƒÂ¼rmer portrays the hero's father as someone who still has to be convinced of its importance. He hates soccer and accuses everybody of being &quot;soccer crazy&quot;.\n\n\n   General\n      Complete name : Der Koenig der Mittelstuermer.avi\n      Format : AVI\n      Format/Info : Audio Video Interleave\n      File size : 1.30 GiB\n      Duration : 1h 34mn\n      Overall bit rate : 1 960 Kbps\n      Writing application : FairUse Wizard - http://fairusewizard.com\n      Writing library : The best and REALLY easy backup tool\n   Video #0\n      ID : 0\n      Format : MPEG-4 Visual\n      Format profile : AdvancedSimple@L5\n      Format settings, BVOP : Yes\n      Format settings, QPel : No\n      Format settings, GMC : No warppoints\n      Format settings, Matrix : Default (MPEG)\n      Muxing mode : Packed bitstream\n      Codec ID : XVID\n      Codec ID/Hint : XviD\n      Duration : 1h 34mn\n      Bit rate : 1 726 Kbps\n      Width : 672 pixels\n      Height : 496 pixels\n      Display aspect ratio : 4:3\n      Frame rate : 25.000 fps\n      Resolution : 24 bits\n      Colorimetry : 4:2:0\n      Scan type : Progressive\n      Bits/(Pixel*Frame) : 0.207\n      Stream size : 1.14 GiB (88%)\n      Writing library : XviD 1.2.1 (UTC 2008-12-04)\n   Audio #1\n      ID : 1\n      Format : AC-3\n      Format/Info : Audio Coding 3\n      Codec ID : 2000\n      Duration : 1h 34mn\n      Bit rate mode : Constant\n      Bit rate : 224 Kbps\n      Channel(s) : 2 channels\n      Channel positions : L R\n      Sampling rate : 48.0 KHz\n      Stream size : 152 MiB (11%)\n      Alignment : Split accross interleaves\n      Interleave, duration : 40 ms (1.00 video frame)\n      Interleave, preload duration : 500 ms\n &lt;a href=&quot;\nhttp://www.imdb.com/title/tt0454860/&quot; rel=&quot;nofollow&quot; target=&quot;_NEW&quot;&gt;\nhttp://www.imdb.com/title/tt0454860/&lt;/a&gt;\n\nSilent with German intertitles; English, French, Spanish and Portuguese subpack (idx/sub)\n\nFritz Freisler - Der Koenig der Mittelstuermer (1927)\n","torrent":{"xt":"urn:btih:33845ec872c93ce0e3ddc0aa48dbc9a6db868ed1","amp;dn":"Fritz+Freisler+-+Der+Koenig+der+Mittelstuermer+%281927%29","amp;tr":["udp%3A%2F%2Ftracker.openbittorrent.com%3A80","udp%3A%2F%2Fopen.demonii.com%3A1337","udp%3A%2F%2Ftracker.coppersurfer.tk%3A6969","udp%3A%2F%2Fexodus.desync.com%3A6969"],"infoHash":"33845ec872c93ce0e3ddc0aa48dbc9a6db868ed1","infoHashBuffer":{"type":"Buffer","data":[51,132,94,200,114,201,60,224,227,221,192,170,72,219,201,166,219,134,142,209]},"announce":[],"urlList":[]}}